<svg width="47" height="8" viewBox="0 0 47 8" fill="none" xmlns="http://www.w3.org/2000/svg">
<path d="M0.890625 1.76562L0.949219 1.0625H11.5078L11.0859 1.61328L7.67578 6.03125H7.03125L8.30859 7.76562H5.68359L2.4375 3.35938H5.0625L5.88281 4.47266L7.96875 1.76562H0.890625ZM13.4062 5.14062L13.4297 2.46875H15.5859L15.5508 5.14062H13.4062ZM18.7969 7.76562L20.5664 2.46875H23.0977L21.3281 7.76562H18.7969ZM16.5938 5.14062L16.6172 2.46875H18.7734L18.7383 5.14062H16.5938ZM24.8789 4.25L24.9375 3.54688H28.7461L29.0391 1.55469L25.207 1.625L25.2656 0.921875L35.2031 0.734375L35.1445 1.4375L31.6641 1.50781L31.3711 3.54688H35.1094L35.0508 4.25H31.2656L30.7617 7.76562H28.1484L28.6523 4.25H24.8789ZM37.4297 2.86719L37.4883 2.16406H46.8516L46.3477 7.76562H37.0195L37.0781 7.0625H43.8867L44.0625 5.11719H37.2891L37.3477 4.41406H44.1211L44.2617 2.86719H37.4297Z" fill="#9DFF00"/>
</svg>
