<svg width="47" height="11" viewBox="0 0 47 11" fill="none" xmlns="http://www.w3.org/2000/svg">
<path d="M11.832 4.12C10.616 5.368 9.404 6.54 8.196 7.636L9.696 8.896C9.256 9.032 8.856 9.18 8.496 9.34C8.144 9.5 7.712 9.704 7.2 9.952C6.88 10.112 6.632 10.232 6.456 10.312C5.752 9.6 4.904 8.832 3.912 8.008C2.928 7.184 1.872 6.372 0.744 5.572L3.264 4C2 4.032 1.052 4.064 0.42 4.096V1.468H10.872L11.832 4.12ZM3.552 4C4.288 4.504 5.072 5.092 5.904 5.764C6.576 5.188 7.224 4.588 7.848 3.964C6.424 3.964 4.992 3.976 3.552 4ZM23.34 3.316C23.164 4.364 22.852 5.272 22.404 6.04C21.956 6.8 21.384 7.456 20.688 8.008C20.04 8.52 19.288 8.948 18.432 9.292C17.584 9.628 16.62 9.912 15.54 10.144C15.236 9.568 14.952 9.072 14.688 8.656C14.424 8.24 14.092 7.84 13.692 7.456C14.852 7.304 15.784 7.14 16.488 6.964C17.192 6.788 17.788 6.56 18.276 6.28C18.636 6.072 18.956 5.816 19.236 5.512L17.4 5.836C17.264 5.524 17.096 5.12 16.896 4.624C16.56 3.776 16.3 3.152 16.116 2.752L18.732 2.488C18.772 2.584 18.912 2.924 19.152 3.508C19.392 4.084 19.568 4.548 19.68 4.9C20.016 4.332 20.268 3.584 20.436 2.656L23.34 3.316ZM14.532 6.484L14.064 5.428C13.968 5.196 13.84 4.904 13.68 4.552C13.52 4.2 13.32 3.74 13.08 3.172L15.672 2.776C16.104 3.944 16.516 5.016 16.908 5.992L14.532 6.484ZM35.724 4.072V6.424H32.928C32.76 7.256 32.456 7.912 32.016 8.392C31.552 8.904 30.828 9.3 29.844 9.58C28.868 9.86 27.652 10.052 26.196 10.156C26.052 9.596 25.896 9.092 25.728 8.644C25.56 8.188 25.344 7.752 25.08 7.336C25.368 7.36 25.692 7.372 26.052 7.372C26.804 7.372 27.504 7.312 28.152 7.192C28.808 7.072 29.268 6.888 29.532 6.64C29.604 6.568 29.664 6.496 29.712 6.424H24.276V4.072H30.036L30 3.556C29.24 3.556 28.476 3.556 27.708 3.556C26.948 3.548 26.188 3.54 25.428 3.532C25.428 3.004 25.42 2.564 25.404 2.212C25.396 1.86 25.364 1.508 25.308 1.156C25.796 1.164 26.516 1.168 27.468 1.168C30.124 1.168 32.676 1.1 35.124 0.964C35.068 1.316 35.032 1.68 35.016 2.056C35.008 2.432 35.004 2.92 35.004 3.52L33.084 3.544C33.092 3.664 33.096 3.84 33.096 4.072H35.724ZM37.644 2.932H46.416V9.82H37.488C37.488 8.788 37.448 8.032 37.368 7.552C39.096 7.608 41.216 7.644 43.728 7.66V7.252H37.824V5.428H43.728V5.008H37.644V2.932Z" fill="white"/>
</svg>
