<svg width="55" height="22" viewBox="0 0 55 22" fill="none" xmlns="http://www.w3.org/2000/svg">
<rect width="54.4762" height="22" rx="3" fill="url(#paint0_linear_41_191)"/>
<path d="M16.9526 15.0952H15.142V11.6909C15.142 11.2378 15.1206 10.8413 15.0776 10.5015C15.0385 10.1577 14.9194 9.92334 14.7202 9.79834C14.5248 9.67334 14.2534 9.61084 13.9057 9.61084C13.5971 9.61084 13.1616 9.78271 12.5991 10.1265V15.0952H10.7885V11.6909C10.7885 11.2144 10.7651 10.812 10.7182 10.4839C10.6713 10.1519 10.5483 9.92334 10.3491 9.79834C10.1538 9.67334 9.88618 9.61084 9.54633 9.61084C9.22211 9.61084 8.78852 9.78467 8.24555 10.1323V15.0952H6.44672V8.31006H8.24555V9.25928C8.8393 8.771 9.28852 8.46045 9.59321 8.32764C9.9018 8.19092 10.2202 8.12256 10.5483 8.12256C11.3998 8.12256 12.0288 8.55615 12.435 9.42334C13.0092 8.92334 13.478 8.58154 13.8413 8.39795C14.2045 8.21436 14.56 8.12256 14.9077 8.12256C16.2709 8.12256 16.9526 8.96045 16.9526 10.6362V15.0952ZM24.517 15.0952H22.7299V14.2104C22.1791 14.6831 21.7319 14.978 21.3881 15.0952C21.0483 15.2163 20.685 15.2769 20.2983 15.2769C19.7045 15.2769 19.2123 15.0854 18.8217 14.7026C18.4311 14.3159 18.2358 13.8198 18.2358 13.2144C18.2358 12.4487 18.5229 11.8687 19.0971 11.4741C19.6752 11.0796 20.892 10.8335 22.7475 10.7358V10.5542C22.7475 10.1284 22.601 9.81982 22.3081 9.62842C22.0151 9.43701 21.5307 9.34131 20.8549 9.34131C20.394 9.34131 19.7338 9.51709 18.8745 9.86865H18.81V8.44482C19.7163 8.22607 20.5366 8.1167 21.2709 8.1167C22.4155 8.1167 23.2416 8.30225 23.7495 8.67334C24.2612 9.04053 24.517 9.62646 24.517 10.4312V15.0952ZM22.7299 13.4429V11.7319C21.5502 11.8296 20.812 11.9819 20.5151 12.189C20.2182 12.3921 20.0698 12.6753 20.0698 13.0386C20.0698 13.4253 20.1733 13.6948 20.3803 13.8472C20.5873 13.9995 20.9116 14.0757 21.353 14.0757C21.8178 14.0757 22.2768 13.8647 22.7299 13.4429ZM31.6362 14.7612C30.8784 15.105 30.1928 15.2769 29.5795 15.2769C28.392 15.2769 27.4663 14.9702 26.8022 14.3569C26.1381 13.7437 25.8061 12.8687 25.8061 11.7319C25.8061 10.5874 26.142 9.70068 26.8139 9.07178C27.4858 8.43896 28.3842 8.12256 29.5092 8.12256C30.2436 8.12256 30.9526 8.29639 31.6362 8.64404V10.2964H31.5424C30.8784 9.70264 30.2241 9.40576 29.5795 9.40576C28.9819 9.40576 28.517 9.61084 28.185 10.021C27.853 10.4312 27.687 11.0015 27.687 11.7319C27.687 12.4624 27.853 13.0229 28.185 13.4136C28.5209 13.8003 28.9956 13.9937 29.6088 13.9937C30.2612 13.9937 30.9057 13.6968 31.5424 13.103H31.6362V14.7612ZM39.2358 15.0952H37.4252V11.7144C37.4252 10.769 37.3198 10.1831 37.1088 9.95654C36.9018 9.72607 36.5639 9.61084 36.0952 9.61084C35.7045 9.61084 35.2338 9.78467 34.6831 10.1323V15.0952H32.8842V5.87256H34.6831V9.25928C35.2456 8.79834 35.6948 8.49365 36.0307 8.34521C36.3706 8.19678 36.7241 8.12256 37.0913 8.12256C38.5209 8.12256 39.2358 8.96045 39.2358 10.6362V15.0952ZM44.017 15.3062C42.9155 15.3062 42.06 14.9897 41.4506 14.3569C40.8413 13.7202 40.5366 12.8374 40.5366 11.7085C40.5366 10.5757 40.8432 9.69092 41.4565 9.0542C42.0737 8.41748 42.9272 8.09912 44.017 8.09912C45.1147 8.09912 45.9682 8.41748 46.5776 9.0542C47.1909 9.69092 47.4975 10.5757 47.4975 11.7085C47.4975 12.8374 47.1909 13.7202 46.5776 14.3569C45.9682 14.9897 45.1147 15.3062 44.017 15.3062ZM44.017 9.35303C42.9506 9.35303 42.4174 10.144 42.4174 11.7261C42.4174 13.2769 42.9584 14.0522 44.0405 14.0522C45.0913 14.0522 45.6166 13.2769 45.6166 11.7261C45.6166 10.144 45.0834 9.35303 44.017 9.35303Z" fill="white"/>
<defs>
<linearGradient id="paint0_linear_41_191" x1="1.04762" y1="1.57143" x2="52.9048" y2="20.9524" gradientUnits="userSpaceOnUse">
<stop stop-color="#FF0303"/>
<stop offset="0.480769" stop-color="#B22CA7"/>
<stop offset="1" stop-color="#003CFF"/>
</linearGradient>
</defs>
</svg>
