<svg width="52" height="21" viewBox="0 0 52 21" fill="none" xmlns="http://www.w3.org/2000/svg">
<rect width="52" height="21" rx="3" fill="url(#paint0_linear_41_191)"/>
<path d="M15.7383 15H13.9277V11.5957C13.9277 11.1426 13.9062 10.7461 13.8633 10.4062C13.8242 10.0625 13.7051 9.82812 13.5059 9.70312C13.3105 9.57812 13.0391 9.51562 12.6914 9.51562C12.3828 9.51562 11.9473 9.6875 11.3848 10.0312V15H9.57422V11.5957C9.57422 11.1191 9.55078 10.7168 9.50391 10.3887C9.45703 10.0566 9.33398 9.82812 9.13477 9.70312C8.93945 9.57812 8.67188 9.51562 8.33203 9.51562C8.00781 9.51562 7.57422 9.68945 7.03125 10.0371V15H5.23242V8.21484H7.03125V9.16406C7.625 8.67578 8.07422 8.36523 8.37891 8.23242C8.6875 8.0957 9.00586 8.02734 9.33398 8.02734C10.1855 8.02734 10.8145 8.46094 11.2207 9.32812C11.7949 8.82812 12.2637 8.48633 12.627 8.30273C12.9902 8.11914 13.3457 8.02734 13.6934 8.02734C15.0566 8.02734 15.7383 8.86523 15.7383 10.541V15ZM23.3027 15H21.5156V14.1152C20.9648 14.5879 20.5176 14.8828 20.1738 15C19.834 15.1211 19.4707 15.1816 19.084 15.1816C18.4902 15.1816 17.998 14.9902 17.6074 14.6074C17.2168 14.2207 17.0215 13.7246 17.0215 13.1191C17.0215 12.3535 17.3086 11.7734 17.8828 11.3789C18.4609 10.9844 19.6777 10.7383 21.5332 10.6406V10.459C21.5332 10.0332 21.3867 9.72461 21.0938 9.5332C20.8008 9.3418 20.3164 9.24609 19.6406 9.24609C19.1797 9.24609 18.5195 9.42188 17.6602 9.77344H17.5957V8.34961C18.502 8.13086 19.3223 8.02148 20.0566 8.02148C21.2012 8.02148 22.0273 8.20703 22.5352 8.57812C23.0469 8.94531 23.3027 9.53125 23.3027 10.3359V15ZM21.5156 13.3477V11.6367C20.3359 11.7344 19.5977 11.8867 19.3008 12.0938C19.0039 12.2969 18.8555 12.5801 18.8555 12.9434C18.8555 13.3301 18.959 13.5996 19.166 13.752C19.373 13.9043 19.6973 13.9805 20.1387 13.9805C20.6035 13.9805 21.0625 13.7695 21.5156 13.3477ZM30.4219 14.666C29.6641 15.0098 28.9785 15.1816 28.3652 15.1816C27.1777 15.1816 26.252 14.875 25.5879 14.2617C24.9238 13.6484 24.5918 12.7734 24.5918 11.6367C24.5918 10.4922 24.9277 9.60547 25.5996 8.97656C26.2715 8.34375 27.1699 8.02734 28.2949 8.02734C29.0293 8.02734 29.7383 8.20117 30.4219 8.54883V10.2012H30.3281C29.6641 9.60742 29.0098 9.31055 28.3652 9.31055C27.7676 9.31055 27.3027 9.51562 26.9707 9.92578C26.6387 10.3359 26.4727 10.9062 26.4727 11.6367C26.4727 12.3672 26.6387 12.9277 26.9707 13.3184C27.3066 13.7051 27.7812 13.8984 28.3945 13.8984C29.0469 13.8984 29.6914 13.6016 30.3281 13.0078H30.4219V14.666ZM38.0215 15H36.2109V11.6191C36.2109 10.6738 36.1055 10.0879 35.8945 9.86133C35.6875 9.63086 35.3496 9.51562 34.8809 9.51562C34.4902 9.51562 34.0195 9.68945 33.4688 10.0371V15H31.6699V5.77734H33.4688V9.16406C34.0312 8.70312 34.4805 8.39844 34.8164 8.25C35.1562 8.10156 35.5098 8.02734 35.877 8.02734C37.3066 8.02734 38.0215 8.86523 38.0215 10.541V15ZM42.8027 15.2109C41.7012 15.2109 40.8457 14.8945 40.2363 14.2617C39.627 13.625 39.3223 12.7422 39.3223 11.6133C39.3223 10.4805 39.6289 9.5957 40.2422 8.95898C40.8594 8.32227 41.7129 8.00391 42.8027 8.00391C43.9004 8.00391 44.7539 8.32227 45.3633 8.95898C45.9766 9.5957 46.2832 10.4805 46.2832 11.6133C46.2832 12.7422 45.9766 13.625 45.3633 14.2617C44.7539 14.8945 43.9004 15.2109 42.8027 15.2109ZM42.8027 9.25781C41.7363 9.25781 41.2031 10.0488 41.2031 11.6309C41.2031 13.1816 41.7441 13.957 42.8262 13.957C43.877 13.957 44.4023 13.1816 44.4023 11.6309C44.4023 10.0488 43.8691 9.25781 42.8027 9.25781Z" fill="white"/>
<defs>
<linearGradient id="paint0_linear_41_191" x1="1" y1="1.5" x2="50.5" y2="20" gradientUnits="userSpaceOnUse">
<stop stop-color="#FF0303"/>
<stop offset="0.673077" stop-color="#003CFF"/>
</linearGradient>
</defs>
</svg>
